<svg width="40" height="40" viewBox="0 0 40 40" fill="none" xmlns="http://www.w3.org/2000/svg">
<circle cx="20" cy="20" r="20" fill="#613EEA"/>
<path d="M26.7154 16.1184C26.6962 15.6975 26.6962 15.2957 26.6962 14.8939C26.6962 14.5686 26.4475 14.3199 26.1223 14.3199C23.7306 14.3199 21.913 13.6311 20.4015 12.1578C20.1719 11.9474 19.8275 11.9474 19.5979 12.1578C18.0864 13.6311 16.2687 14.3199 13.8771 14.3199C13.5518 14.3199 13.3031 14.5686 13.3031 14.8939C13.3031 15.2957 13.3031 15.6975 13.284 16.1184C13.2075 20.1363 13.0927 25.6466 19.8083 27.9617L19.9997 28L20.191 27.9617C26.8876 25.6466 26.7919 20.1555 26.7154 16.1184Z" fill="white"/>
</svg>
