<svg width="40" height="40" viewBox="0 0 40 40" fill="none" xmlns="http://www.w3.org/2000/svg">
<circle cx="20" cy="20" r="20" fill="#613EEA"/>
<g clip-path="url(#clip0)">
<path d="M20.2762 19.7269H23.5818C23.5478 18.5264 23.2966 17.3616 22.8462 16.282C22.0152 16.5233 21.1534 16.6561 20.2762 16.6796V19.7269Z" fill="white"/>
<path d="M23.1502 15.6052C23.9586 15.3263 24.7325 14.9448 25.4496 14.4541L25.6299 14.3161C24.3109 13.0101 22.5416 12.1603 20.5788 12.0192L20.4358 12.1354C21.5993 13.0987 22.5193 14.2829 23.1502 15.6052Z" fill="white"/>
<path d="M20.2762 12.7257V16.1273C21.0745 16.1047 21.8586 15.9857 22.6157 15.7731C22.056 14.6245 21.2653 13.5885 20.2762 12.7257Z" fill="white"/>
<path d="M23.4669 23.6522C24.3311 23.9647 25.1567 24.3888 25.9201 24.933L26.1598 25.1125C27.2576 23.7914 27.9376 22.1124 28 20.2793H24.134C24.1028 21.4494 23.8742 22.5867 23.4669 23.6522Z" fill="white"/>
<path d="M14.5504 14.4541C15.2674 14.9448 16.0416 15.3261 16.8498 15.6052C17.4807 14.2832 18.4007 13.099 19.5644 12.1354L19.4214 12.0192C17.4542 12.1605 15.681 13.014 14.361 14.3246L14.5504 14.4541Z" fill="white"/>
<path d="M19.7241 12.7257C18.7348 13.5885 17.9443 14.6248 17.3846 15.7728C18.1417 15.9854 18.9259 16.1047 19.7241 16.127V12.7257Z" fill="white"/>
<path d="M15.8663 20.2791H12C12.0627 22.1121 12.7424 23.7908 13.8402 25.1123L14.0749 24.9369C14.8411 24.3911 15.6683 23.9656 16.5339 23.6525C16.1258 22.5862 15.8975 21.4489 15.8663 20.2791Z" fill="white"/>
<path d="M16.6253 16.1113C15.7868 15.8175 14.9839 15.4196 14.2387 14.9099L13.9797 14.7327C12.801 16.0776 12.0652 17.8181 12 19.7269H15.8663C15.8997 18.4678 16.1584 17.2452 16.6253 16.1113Z" fill="white"/>
<path d="M16.4185 19.7269H19.724V16.6795C18.8462 16.656 17.9842 16.5232 17.1537 16.2825C16.7034 17.3618 16.4521 18.5264 16.4185 19.7269Z" fill="white"/>
<path d="M19.5368 27.8461C18.3167 26.8259 17.3719 25.5658 16.7451 24.1626C15.919 24.4591 15.1296 24.8634 14.4004 25.383L14.2102 25.5252C15.5283 26.9065 17.333 27.818 19.3471 27.9814L19.5368 27.8461Z" fill="white"/>
<path d="M19.724 23.0506V20.2791H16.4185C16.4497 21.3887 16.6683 22.4669 17.0571 23.4763C17.9166 23.2174 18.8112 23.0749 19.724 23.0506Z" fill="white"/>
<path d="M25.5943 25.3791C24.8679 24.8614 24.0807 24.4583 23.256 24.1626C22.6287 25.5691 21.6827 26.8303 20.4637 27.8469L20.6529 27.9814C22.6671 27.818 24.472 26.9068 25.7901 25.5255L25.5943 25.3791Z" fill="white"/>
<path d="M25.7735 14.9011C25.0225 15.4152 24.2154 15.8152 23.3744 16.1104C23.8416 17.2446 24.1003 18.4675 24.134 19.7268H28.0003C27.9348 17.812 27.1949 16.0668 26.0098 14.7202L25.7735 14.9011Z" fill="white"/>
<path d="M19.724 27.2802V23.6028C18.8849 23.6263 18.0629 23.7563 17.2716 23.9893C17.8357 25.2343 18.6654 26.3569 19.724 27.2802Z" fill="white"/>
<path d="M23.5818 20.2791H20.2762V23.0506C21.1893 23.0749 22.0842 23.2174 22.944 23.4763C23.3316 22.4672 23.5503 21.389 23.5818 20.2791Z" fill="white"/>
<path d="M22.7294 23.9893C21.9381 23.7563 21.1156 23.6265 20.2762 23.6028V27.2813C21.334 26.3611 22.1645 25.2373 22.7294 23.9893Z" fill="white"/>
</g>
<defs>
<clipPath id="clip0">
<rect width="16" height="16" fill="white" transform="translate(12 12)"/>
</clipPath>
</defs>
</svg>
