<svg width="40" height="40" viewBox="0 0 40 40" fill="none" xmlns="http://www.w3.org/2000/svg">
<circle cx="20" cy="20" r="20" fill="#613EEA"/>
<path d="M25.6667 18H24.6667V16.6667C24.6667 14.0934 22.5732 12 20 12C17.4267 12 15.3333 14.0934 15.3333 16.6667V18H14.3333C14.1491 18 14 18.1491 14 18.3333V26.6667C14 27.402 14.598 28 15.3333 28H24.6667C25.402 28 26 27.402 26 26.6667V18.3333C26 18.1491 25.8509 18 25.6667 18ZM20.9981 24.9632C21.0085 25.0573 20.9782 25.1517 20.9151 25.2223C20.8519 25.293 20.7614 25.3333 20.6667 25.3333H19.3333C19.2386 25.3333 19.1481 25.293 19.085 25.2223C19.0218 25.1517 18.9915 25.0573 19.002 24.9632L19.2123 23.0723C18.8708 22.8239 18.6667 22.431 18.6667 22C18.6667 21.2647 19.2647 20.6667 20 20.6667C20.7354 20.6667 21.3334 21.2646 21.3334 22C21.3334 22.431 21.1293 22.8239 20.7878 23.0723L20.9981 24.9632ZM22.6667 18H17.3333V16.6667C17.3333 15.1963 18.5296 14 20 14C21.4704 14 22.6667 15.1963 22.6667 16.6667V18Z" fill="white"/>
</svg>
