<svg width="40" height="40" viewBox="0 0 40 40" fill="none" xmlns="http://www.w3.org/2000/svg">
<circle cx="20" cy="20" r="20" fill="#613EEA"/>
<path d="M24.8038 23.4371L22.2563 22.1635C22.016 22.0432 21.8667 21.8016 21.8667 21.5328V20.6312C21.9278 20.5565 21.992 20.4715 22.0584 20.3776C22.3888 19.9109 22.6536 19.3915 22.8462 18.8312C23.2224 18.6587 23.4667 18.2867 23.4667 17.8667V16.8C23.4667 16.5432 23.3707 16.2944 23.2 16.1V14.6816C23.215 14.5349 23.2736 13.6619 22.6422 12.9416C22.0944 12.3168 21.2056 12 20 12C18.7944 12 17.9056 12.3168 17.3579 12.9413C16.7264 13.6616 16.7851 14.5349 16.8 14.6816V16.1C16.6294 16.2944 16.5334 16.5432 16.5334 16.8V17.8667C16.5334 18.1912 16.6808 18.4939 16.9326 18.6957C17.1768 19.6629 17.688 20.3917 17.8667 20.6256V21.508C17.8667 21.7661 17.7259 22.0029 17.4995 22.1267L15.1206 23.4243C14.347 23.8464 13.8667 24.6555 13.8667 25.5365V26.4C13.8667 27.6656 17.8787 28 20 28C22.1214 28 26.1334 27.6656 26.1334 26.4V25.5885C26.1334 24.6717 25.6238 23.8472 24.8038 23.4371Z" fill="white"/>
</svg>
