<svg width="40" height="40" viewBox="0 0 40 40" fill="none" xmlns="http://www.w3.org/2000/svg">
<circle cx="20" cy="20" r="20" fill="#613EEA"/>
<path d="M17.9005 26.6666C18.2765 27.452 19.0725 28 19.9998 28C20.9271 28 21.7232 27.452 22.0992 26.6666H17.9005Z" fill="white"/>
<path d="M26.6191 25.4953L25.4745 23.5873C24.9458 22.7067 24.6665 21.698 24.6665 20.6713V19C24.6665 16.89 23.2585 15.1053 21.3331 14.53V13.3333C21.3331 12.598 20.7351 12 19.9998 12C19.2645 12 18.6665 12.598 18.6665 13.3333V14.53C16.7411 15.1053 15.3331 16.89 15.3331 19V20.6713C15.3331 21.698 15.0538 22.706 14.5258 23.5867L13.3811 25.4947C13.3191 25.598 13.3178 25.726 13.3771 25.8307C13.4365 25.9353 13.5465 26 13.6665 26H26.3331C26.4531 26 26.5638 25.9354 26.6231 25.8314C26.6825 25.7273 26.6805 25.598 26.6191 25.4953Z" fill="white"/>
</svg>
