<svg width="40" height="40" viewBox="0 0 40 40" fill="none" xmlns="http://www.w3.org/2000/svg">
<circle cx="20" cy="20" r="20" fill="#613EEA"/>
<g clip-path="url(#clip0)">
<path d="M24.3279 22.8354C24.3279 23.7594 24.0279 24.5274 23.4279 25.1394C22.8279 25.7514 22.0119 26.1414 20.9799 26.3094V27.6414H19.1799V26.3274C18.4479 26.2314 17.7759 26.0034 17.1639 25.6434C16.5639 25.2834 16.0659 24.8154 15.6699 24.2394L17.0199 22.9434C17.4039 23.4114 17.8719 23.7954 18.4239 24.0954C18.9879 24.3954 19.5279 24.5454 20.0439 24.5454C20.6559 24.5454 21.1419 24.4014 21.5019 24.1134C21.8739 23.8254 22.0599 23.4474 22.0599 22.9794C22.0599 22.6434 21.9999 22.3674 21.8799 22.1514C21.7599 21.9234 21.5379 21.7014 21.2139 21.4854C20.8899 21.2574 20.3919 20.9754 19.7199 20.6394C18.8319 20.2074 18.1299 19.7994 17.6139 19.4154C17.0979 19.0314 16.7199 18.6234 16.4799 18.1914C16.2399 17.7594 16.1199 17.2614 16.1199 16.6974C16.1199 15.8574 16.3899 15.1554 16.9299 14.5914C17.4819 14.0274 18.2319 13.6614 19.1799 13.4934V12.3594H20.9799V13.4754C21.6759 13.5714 22.2939 13.7874 22.8339 14.1234C23.3859 14.4474 23.7939 14.8614 24.0579 15.3654L22.5999 16.4454C22.3119 16.0734 21.9639 15.7854 21.5559 15.5814C21.1599 15.3654 20.7339 15.2574 20.2779 15.2574C19.6899 15.2574 19.2279 15.3834 18.8919 15.6354C18.5679 15.8754 18.4059 16.2174 18.4059 16.6614C18.4059 16.9374 18.4779 17.1774 18.6219 17.3814C18.7779 17.5734 19.0479 17.7894 19.4319 18.0294C19.8279 18.2694 20.4279 18.5814 21.2319 18.9654C22.3719 19.5054 23.1699 20.0694 23.6259 20.6574C24.0939 21.2334 24.3279 21.9594 24.3279 22.8354Z" fill="white"/>
</g>
<defs>
<clipPath id="clip0">
<rect width="8.658" height="15.282" fill="white" transform="translate(15.6699 12.3594)"/>
</clipPath>
</defs>
</svg>
