<svg width="40" height="40" viewBox="0 0 40 40" fill="none" xmlns="http://www.w3.org/2000/svg">
<circle cx="20" cy="20" r="20" fill="#613EEA"/>
<g clip-path="url(#clip0)">
<path d="M18.88 23.4998C18.8133 23.2331 18.78 22.9598 18.78 22.6798C18.78 22.1198 18.9067 21.5998 19.16 21.1198C19.4133 20.6398 19.7867 20.0731 20.28 19.4198C20.7333 18.8331 21.0733 18.3265 21.3 17.8998C21.5267 17.4731 21.64 17.0331 21.64 16.5798C21.64 15.9531 21.4733 15.4798 21.14 15.1598C20.8067 14.8265 20.3267 14.6598 19.7 14.6598C19.1933 14.6598 18.7067 14.8131 18.24 15.1198C17.7867 15.4265 17.4067 15.8465 17.1 16.3798L15.88 14.9598C16.2667 14.2798 16.82 13.7531 17.54 13.3798C18.26 12.9931 19.0733 12.7998 19.98 12.7998C21.2867 12.7998 22.3 13.1198 23.02 13.7598C23.7533 14.3998 24.12 15.2798 24.12 16.3998C24.12 16.9998 23.98 17.5398 23.7 18.0198C23.4333 18.4998 23.0267 19.0731 22.48 19.7398C21.9733 20.3398 21.5867 20.8665 21.32 21.3198C21.0667 21.7598 20.94 22.2398 20.94 22.7598C20.94 23.0265 20.96 23.2731 21 23.4998H18.88ZM20.02 27.1998C19.5667 27.1998 19.2 27.0665 18.92 26.7998C18.64 26.5331 18.5 26.1865 18.5 25.7598C18.5 25.3331 18.64 24.9865 18.92 24.7198C19.2 24.4531 19.5667 24.3198 20.02 24.3198C20.4733 24.3198 20.84 24.4531 21.12 24.7198C21.4 24.9865 21.54 25.3331 21.54 25.7598C21.54 26.1865 21.4 26.5331 21.12 26.7998C20.84 27.0665 20.4733 27.1998 20.02 27.1998Z" fill="white"/>
</g>
<defs>
<clipPath id="clip0">
<rect width="8.24" height="14.4" fill="white" transform="translate(15.88 12.7998)"/>
</clipPath>
</defs>
</svg>
