<svg width="40" height="40" viewBox="0 0 40 40" fill="none" xmlns="http://www.w3.org/2000/svg">
<circle cx="20" cy="20" r="20" fill="#613EEA"/>
<g clip-path="url(#clip0)">
<path d="M26.5714 26.2854C26.931 26.2854 27.2427 26.1666 27.5076 25.9322L22.9745 21.3989C22.8658 21.4768 22.7603 21.5525 22.6608 21.6245C22.3215 21.8745 22.0462 22.0695 21.8348 22.2093C21.6234 22.3493 21.3422 22.4921 20.9911 22.6379C20.6397 22.7838 20.3125 22.8566 20.0088 22.8566H19.9999H19.9911C19.6874 22.8566 19.3601 22.7839 19.0088 22.6379C18.6575 22.4921 18.3763 22.3493 18.1651 22.2093C17.9537 22.0695 17.6785 21.8745 17.3391 21.6245C17.2445 21.5552 17.1396 21.4791 17.0262 21.3977L12.4923 25.9322C12.7572 26.1666 13.069 26.2854 13.4287 26.2854H26.5714Z" fill="white"/>
<path d="M12.9019 18.5445C12.5627 18.3183 12.2619 18.0593 12 17.7676V24.6645L15.9954 20.6691C15.1961 20.1111 14.1662 19.4037 12.9019 18.5445Z" fill="white"/>
<path d="M27.1072 18.5445C25.8911 19.3676 24.8575 20.0762 24.0062 20.6707L28.0001 24.6647V17.7676C27.744 18.0534 27.4464 18.3123 27.1072 18.5445Z" fill="white"/>
<path d="M26.5713 13.7141H13.4286C12.9701 13.7141 12.6176 13.8689 12.3706 14.1783C12.1235 14.4878 12.0001 14.8748 12.0001 15.339C12.0001 15.7139 12.1638 16.1202 12.4911 16.5579C12.8184 16.9954 13.1667 17.339 13.5358 17.589C13.7381 17.7319 14.3482 18.1561 15.3662 18.8613C15.9157 19.2421 16.3936 19.5741 16.8043 19.8605C17.1543 20.1044 17.4562 20.3156 17.7054 20.4909C17.734 20.5109 17.779 20.5431 17.8388 20.5858C17.9031 20.6321 17.9845 20.6907 18.085 20.7632C18.2784 20.9031 18.4391 21.0162 18.5671 21.1026C18.6949 21.189 18.8498 21.2856 19.0315 21.3928C19.213 21.4998 19.3842 21.5803 19.5449 21.6338C19.7056 21.6873 19.8544 21.7142 19.9913 21.7142H20.0002H20.0091C20.1459 21.7142 20.2947 21.6873 20.4555 21.6338C20.6162 21.5803 20.7872 21.5 20.9689 21.3928C21.1504 21.2856 21.3051 21.1888 21.4333 21.1026C21.5613 21.0162 21.722 20.9032 21.9154 20.7632C22.0157 20.6907 22.0971 20.632 22.1615 20.586C22.2212 20.5431 22.2662 20.5111 22.295 20.4909C22.4891 20.3558 22.7917 20.1454 23.1985 19.863C23.9387 19.3486 25.0289 18.5917 26.4735 17.589C26.908 17.2855 27.271 16.9193 27.5628 16.4908C27.854 16.0624 28 15.613 28 15.1427C28 14.7499 27.8584 14.4137 27.5759 14.1337C27.2931 13.854 26.9582 13.7141 26.5713 13.7141Z" fill="white"/>
</g>
<defs>
<clipPath id="clip0">
<rect width="16" height="16" fill="white" transform="translate(12 12)"/>
</clipPath>
</defs>
</svg>
